<?xml version="1.0" standalone="no"?>
<!DOCTYPE svg PUBLIC "-//W3C//DTD SVG 20010904//EN"
 "http://www.w3.org/TR/2001/REC-SVG-20010904/DTD/svg10.dtd">
<svg version="1.0" xmlns="http://www.w3.org/2000/svg"
 width="823.000000pt" height="823.000000pt" viewBox="0 0 823.000000 823.000000"
 preserveAspectRatio="xMidYMid meet">
<metadata>
Created by potrace 1.14, written by Peter Selinger 2001-2017
</metadata>
<g transform="translate(0.000000,823.000000) scale(0.100000,-0.100000)"
fill="#000000" stroke="none">
<path d="M3899 8096 c-2 -2 -42 -7 -89 -10 -123 -10 -333 -37 -400 -52 -14 -3
-38 -7 -55 -10 -172 -29 -573 -151 -749 -228 -17 -8 -60 -27 -96 -42 -82 -36
-286 -140 -363 -185 -32 -19 -66 -38 -76 -44 -16 -10 -182 -119 -231 -152 -38
-26 -184 -136 -190 -143 -3 -3 -41 -35 -85 -70 -124 -99 -408 -390 -528 -540
-423 -528 -685 -1094 -822 -1780 -1 -8 -6 -40 -11 -70 -4 -30 -8 -57 -9 -60
-1 -3 -5 -32 -9 -65 -4 -33 -9 -69 -11 -81 -12 -82 -20 -254 -20 -454 0 -286
8 -382 51 -665 18 -116 83 -395 105 -452 6 -15 12 -35 14 -44 9 -43 89 -267
130 -364 166 -389 363 -713 630 -1035 82 -99 343 -364 430 -437 28 -24 64 -54
80 -68 49 -43 245 -188 320 -238 39 -26 75 -51 82 -57 7 -5 15 -10 19 -10 3 0
19 -9 35 -21 81 -57 379 -212 529 -273 36 -15 79 -33 95 -41 116 -52 559 -181
690 -200 22 -3 47 -7 55 -10 21 -6 214 -35 275 -41 28 -3 91 -9 140 -13 89 -9
592 -6 650 3 17 3 57 7 89 11 33 3 74 8 90 10 17 3 45 7 61 9 176 21 463 91
690 168 815 274 1535 823 2019 1538 77 114 100 151 191 310 189 331 369 837
431 1210 2 14 7 41 10 60 4 19 8 44 9 55 2 11 5 36 8 55 3 19 9 67 12 105 4
39 11 104 15 145 8 76 5 586 -4 650 -5 34 -13 95 -22 175 -57 486 -253 1052
-518 1497 -66 110 -207 322 -250 375 -8 10 -56 70 -107 133 -119 146 -352 382
-514 520 -149 126 -441 327 -620 427 -119 66 -361 183 -378 183 -7 0 -17 4
-23 9 -41 37 -442 164 -699 221 -70 16 -77 18 -121 24 -22 4 -64 11 -94 16
-68 12 -119 19 -190 25 -30 3 -71 8 -90 11 -38 6 -575 15 -581 10z"/>
</g>
</svg>
